<?xml version="1.0" encoding="UTF-8"?>
<svg id="Layer_2" data-name="Layer 2" xmlns="http://www.w3.org/2000/svg" viewBox="0 0 568 568">
  <defs>
    <style>
      .cls-1, .cls-2 {
        fill: #fff;
      }

      .cls-3 {
        fill: none;
      }

      .cls-3, .cls-2 {
        stroke: #231f20;
        stroke-linecap: round;
        stroke-miterlimit: 10;
        stroke-width: 7px;
      }

      .cls-4 {
        fill: #231f20;
      }
    </style>
  </defs>
  <path class="cls-2" d="M188.67,411.12s-29.55-4.93-38.76-46.65c-9.21-41.71-31.98-37.68-31.98-37.68,0,0-38.28-1.79-28.1,45.3s66.38,60.11,66.38,60.11c0,0,26.16,4.04,44.09-1.35"/>
  <path class="cls-2" d="M299.93,411.07c18.57,0,24.09,8.29,24.09,8.29,0,0,11.04,7.8,5.52,27.8-5.52,20-27.1,18.53-27.1,18.53,0,0-61.73,1.46-93.35-21.95-10.89-8.06-17.49-21.91-21.47-36.61-.46-1.7-.89-3.42-1.28-5.14-6.06-26.49-4.35-53.85-4.35-53.85,0,0-1.51-62.92,34.63-169.73,36.14-106.81,72.27-14.14,72.27-14.14,0,0,28.11-10.24,66.75-6.34,0,0,33.12-88.77,73.78,6.34,40.65,95.11,41.15,178.99,41.15,178.99,0,0,1.51,20.97,0,50.72,0,0,29.11,13.17,19.07,39.02-10.04,25.85-41.15,19.51-41.15,19.51,0,0-28.61-7.32-40.15-10.24,0,0-50.69,6.83-78.8,4.88"/>
  <path class="cls-2" d="M168.13,249.46s45.03,1.48,53.94,6.43"/>
  <path class="cls-2" d="M428.91,224.22s29.19-14.35,48-12.37"/>
  <path class="cls-2" d="M432.87,241.04s37.61-9.9,50.47-5.44"/>
  <path class="cls-2" d="M305.2,242.48s16.91,10.77,27.36-4.73c0,0,16.84,15.03,28.56,.83"/>
  <path class="cls-2" d="M254.23,268.94s39.74,15.15,29.77,40.88c-9.97,25.73-41.64,14.35-41.64,14.35"/>
  <polyline class="cls-2" points="276.01 323.19 278.97 363.27 397.24 351.89 397.24 317.79"/>
  <path class="cls-2" d="M408.12,261.33s-30.68,17.81-23.26,43.05,44.04,11.26,44.04,11.26"/>
  <path class="cls-2" d="M393.77,271.23c-45.03,0-117.77,6.93-117.77,6.93v2.97"/>
  <polyline class="cls-2" points="285.61 293.35 340.77 331.12 386.43 284.4"/>
  <g>
    <circle class="cls-1" cx="279.77" cy="234.45" r="3.7"/>
    <path class="cls-4" d="M279.77,225.25c-5.08,0-9.2,4.12-9.2,9.2s4.12,9.2,9.2,9.2,9.2-4.12,9.2-9.2-4.12-9.2-9.2-9.2h0Z"/>
  </g>
  <g>
    <path class="cls-1" d="M383.71,227.92c-2.04,0-3.7-1.66-3.7-3.7s1.66-3.7,3.7-3.7,3.7,1.66,3.7,3.7-1.66,3.7-3.7,3.7Z"/>
    <path class="cls-4" d="M383.71,215.02c-5.08,0-9.2,4.12-9.2,9.2s4.12,9.2,9.2,9.2,9.2-4.12,9.2-9.2-4.12-9.2-9.2-9.2h0Z"/>
  </g>
  <path class="cls-3" d="M224.54,241.04s-27.71-13.36-51.96-14.84h0"/>
</svg>